<svg width="240" height="240" viewBox="0 0 240 240" fill="none" xmlns="http://www.w3.org/2000/svg">
<path d="M92.8125 33.2812H129.375C130.121 33.2812 130.836 32.9849 131.364 32.4575C131.891 31.93 132.188 31.2147 132.188 30.4688V17.3438C132.188 16.5978 131.891 15.8825 131.364 15.355C130.836 14.8276 130.121 14.5312 129.375 14.5312H92.8125C92.0666 14.5312 91.3512 14.8276 90.8238 15.355C90.2963 15.8825 90 16.5978 90 17.3438V30.4688C90 31.2147 90.2963 31.93 90.8238 32.4575C91.3512 32.9849 92.0666 33.2812 92.8125 33.2812ZM95.625 20.1562H126.562V27.6562H95.625V20.1562Z" fill="#111827"/>
<path d="M196.992 135.937H219.745C220.513 135.916 221.243 135.6 221.785 135.056C222.326 134.512 222.638 133.78 222.656 133.013V116.339C222.637 115.574 222.324 114.845 221.782 114.305C221.24 113.764 220.511 113.454 219.745 113.438H216.562V108.975C216.584 107.879 216.387 106.79 215.982 105.771C215.577 104.753 214.972 103.825 214.203 103.044C213.456 102.261 212.557 101.638 211.562 101.213C210.566 100.787 209.495 100.569 208.412 100.57C207.317 100.574 206.233 100.796 205.223 101.222C204.214 101.647 203.299 102.269 202.531 103.05C201.763 103.832 201.158 104.758 200.75 105.775C200.343 106.792 200.141 107.88 200.156 108.975V113.438H196.992C196.225 113.453 195.493 113.763 194.948 114.303C194.402 114.843 194.085 115.572 194.062 116.339V133.013C194.085 133.782 194.401 134.514 194.945 135.058C195.49 135.602 196.223 135.917 196.992 135.937ZM205.781 108.975C205.771 108.615 205.833 108.257 205.963 107.921C206.093 107.586 206.288 107.28 206.538 107.021C206.788 106.762 207.087 106.555 207.418 106.414C207.749 106.272 208.105 106.198 208.465 106.195C208.808 106.197 209.147 106.271 209.458 106.413C209.77 106.556 210.049 106.763 210.274 107.021C210.512 107.285 210.693 107.594 210.807 107.93C210.921 108.266 210.965 108.621 210.938 108.975V113.438H205.781V108.975ZM199.688 119.063H217.031V130.313H199.688V119.063Z" fill="#111827"/>
<path d="M31.4062 37.4625C30.6603 37.4625 29.945 37.7588 29.4175 38.2863C28.8901 38.8137 28.5938 39.5291 28.5938 40.275V41.8735C28.5938 42.6194 28.8901 43.3348 29.4175 43.8622C29.945 44.3896 30.6603 44.686 31.4062 44.686C32.1522 44.686 32.8675 44.3896 33.395 43.8622C33.9224 43.3348 34.2188 42.6194 34.2188 41.8735V40.275C34.2188 39.5291 33.9224 38.8137 33.395 38.2863C32.8675 37.7588 32.1522 37.4625 31.4062 37.4625Z" fill="#111827"/>
<path d="M31.4062 47.9672C30.6603 47.9672 29.945 48.2635 29.4175 48.7909C28.8901 49.3184 28.5938 50.0337 28.5938 50.7797V97.4062C28.5938 98.1521 28.8901 98.8675 29.4175 99.395C29.945 99.9224 30.6603 100.219 31.4062 100.219C32.1522 100.219 32.8675 99.9224 33.395 99.395C33.9224 98.8675 34.2188 98.1521 34.2188 97.4062V50.7797C34.2188 50.0337 33.9224 49.3184 33.395 48.7909C32.8675 48.2635 32.1522 47.9672 31.4062 47.9672Z" fill="#111827"/>
<path d="M74.1948 154.734C74.9323 155.315 75.8424 155.633 76.7809 155.638C77.8229 155.64 78.8231 155.229 79.5625 154.495C80.263 153.793 80.6812 152.858 80.7377 151.868C80.7943 150.878 80.4851 149.902 79.8691 149.124C79.7172 148.923 79.539 148.744 79.3394 148.59C78.5716 147.959 77.5967 147.635 76.6039 147.682C75.6111 147.729 74.6711 148.143 73.9661 148.843C73.2611 149.544 72.8414 150.481 72.7884 151.474C72.7354 152.466 73.0529 153.443 73.6792 154.215C73.8279 154.41 74.0012 154.584 74.1948 154.734V154.734Z" fill="#111827"/>
<path d="M85.5381 154.738C86.2756 155.316 87.1848 155.633 88.1223 155.638C89.1662 155.641 90.1684 155.228 90.9085 154.492C91.6077 153.79 92.0249 152.856 92.0809 151.866C92.137 150.877 91.8281 149.902 91.2127 149.125C91.0609 148.924 90.8827 148.744 90.683 148.59C89.9155 147.961 88.9421 147.639 87.9508 147.686C86.9595 147.733 86.0208 148.145 85.3159 148.844C84.611 149.542 84.19 150.477 84.1343 151.468C84.0785 152.459 84.3919 153.435 85.014 154.208C85.1645 154.407 85.3407 154.585 85.5381 154.738V154.738Z" fill="#111827"/>
<path d="M96.8818 154.738C97.6194 155.316 98.5285 155.633 99.466 155.638C100.51 155.641 101.512 155.228 102.252 154.492C102.951 153.79 103.369 152.856 103.425 151.866C103.481 150.877 103.172 149.902 102.556 149.125C102.405 148.924 102.226 148.744 102.027 148.59C101.259 147.961 100.286 147.639 99.2946 147.686C98.3033 147.733 97.3645 148.145 96.6596 148.844C95.9548 149.542 95.5338 150.477 95.478 151.468C95.4223 152.459 95.7357 153.435 96.3577 154.208C96.5082 154.407 96.6844 154.585 96.8818 154.738V154.738Z" fill="#111827"/>
<path d="M74.1948 123.061C74.9323 123.642 75.8423 123.96 76.7809 123.965C77.8241 123.967 78.8255 123.555 79.5652 122.82C80.2651 122.118 80.6824 121.183 80.7379 120.193C80.7933 119.203 80.4829 118.228 79.8657 117.452C79.716 117.254 79.5409 117.078 79.3449 116.926C78.5781 116.293 77.6036 115.968 76.6105 116.014C75.6175 116.059 74.6767 116.472 73.971 117.172C73.2652 117.872 72.8448 118.81 72.7914 119.802C72.738 120.795 73.0554 121.772 73.682 122.544C73.8298 122.738 74.0022 122.912 74.1948 123.061V123.061Z" fill="#111827"/>
<path d="M85.5381 123.065C86.2765 123.644 87.1867 123.961 88.1252 123.965C88.6427 123.966 89.1554 123.865 89.634 123.668C90.1125 123.471 90.5476 123.182 90.9142 122.816C91.6127 122.114 92.0289 121.18 92.0838 120.191C92.1386 119.202 91.8284 118.227 91.2119 117.452C91.0621 117.254 90.887 117.078 90.6911 116.926C89.9246 116.294 88.9506 115.968 87.958 116.013C86.9653 116.058 86.0246 116.47 85.3183 117.169C84.612 117.868 84.1904 118.804 84.1351 119.796C84.0799 120.788 84.3949 121.766 85.0192 122.539C85.1684 122.736 85.3429 122.913 85.5381 123.065V123.065Z" fill="#111827"/>
<path d="M96.8818 123.065C97.6195 123.643 98.5289 123.96 99.4665 123.965C99.9841 123.966 100.497 123.865 100.975 123.668C101.454 123.471 101.889 123.182 102.256 122.816C102.954 122.114 103.37 121.18 103.425 120.191C103.48 119.202 103.17 118.227 102.553 117.452C102.403 117.254 102.228 117.078 102.032 116.926C101.266 116.294 100.292 115.968 99.2993 116.013C98.3066 116.058 97.366 116.47 96.6596 117.169C95.9533 117.868 95.5317 118.804 95.4764 119.796C95.4212 120.788 95.7362 121.766 96.3605 122.539C96.5104 122.736 96.6857 122.913 96.8818 123.065V123.065Z" fill="#111827"/>
<path d="M74.1947 91.3926C74.9323 91.9735 75.8425 92.2916 76.7813 92.2969C77.8234 92.2989 78.8238 91.8878 79.5633 91.1536C80.264 90.4513 80.6823 89.516 80.7386 88.5256C80.795 87.5351 80.4855 86.5585 79.8689 85.7812C79.7185 85.5824 79.5422 85.4044 79.3449 85.252C78.5779 84.6201 77.6036 84.2956 76.6108 84.3413C75.6181 84.387 74.6778 84.7998 73.9721 85.4995C73.2664 86.1992 72.8457 87.136 72.7916 88.1283C72.7375 89.1206 73.0538 90.0977 73.6791 90.87C73.8273 91.0661 74.0007 91.2418 74.1947 91.3926Z" fill="#111827"/>
<path d="M85.5381 91.3959C86.2758 91.9743 87.1849 92.2909 88.1223 92.2959C89.1662 92.2984 90.1684 91.8861 90.9085 91.1498C91.608 90.4476 92.0253 89.513 92.0814 88.5234C92.1375 87.5338 91.8284 86.558 91.2128 85.7812C91.0623 85.5824 90.886 85.4044 90.6887 85.252C89.922 84.6204 88.9482 84.2957 87.9559 84.3408C86.9636 84.3859 86.0233 84.7976 85.317 85.4962C84.6108 86.1947 84.1888 87.1304 84.1328 88.1222C84.0769 89.114 84.3908 90.0912 85.014 90.8648C85.1644 91.0643 85.3406 91.2429 85.5381 91.3959Z" fill="#111827"/>
<path d="M96.8818 91.3959C97.6195 91.9743 98.5286 92.291 99.466 92.2959C100.51 92.2984 101.512 91.8861 102.252 91.1498C102.952 90.4476 103.369 89.513 103.425 88.5234C103.481 87.5338 103.172 86.558 102.557 85.7812C102.406 85.5824 102.23 85.4044 102.032 85.252C101.266 84.6204 100.292 84.2957 99.2996 84.3408C98.3073 84.3859 97.367 84.7976 96.6608 85.4962C95.9545 86.1947 95.5326 87.1304 95.4766 88.1222C95.4206 89.114 95.7346 90.0912 96.3578 90.8648C96.5082 91.0643 96.6844 91.2429 96.8818 91.3959V91.3959Z" fill="#111827"/>
<path d="M170.324 148.591C169.556 147.962 168.583 147.64 167.592 147.687C166.601 147.734 165.662 148.147 164.958 148.845C164.253 149.543 163.832 150.478 163.776 151.469C163.72 152.459 164.033 153.435 164.654 154.208C164.805 154.407 164.981 154.585 165.179 154.738C165.916 155.316 166.825 155.633 167.763 155.638C168.807 155.641 169.809 155.228 170.549 154.492C171.248 153.79 171.665 152.856 171.721 151.866C171.778 150.877 171.469 149.902 170.853 149.125C170.701 148.924 170.523 148.744 170.324 148.591Z" fill="#111827"/>
<path d="M170.329 116.926C169.563 116.294 168.589 115.968 167.596 116.013C166.603 116.058 165.663 116.47 164.957 117.169C164.25 117.868 163.829 118.804 163.773 119.796C163.718 120.788 164.033 121.766 164.657 122.539C164.807 122.736 164.982 122.913 165.178 123.065C165.916 123.643 166.825 123.96 167.763 123.965C168.28 123.966 168.793 123.865 169.272 123.668C169.75 123.471 170.185 123.182 170.552 122.816C171.25 122.114 171.667 121.18 171.722 120.191C171.776 119.202 171.466 118.227 170.85 117.452C170.7 117.254 170.525 117.078 170.329 116.926V116.926Z" fill="#111827"/>
<path d="M170.329 85.253C169.563 84.6214 168.589 84.2967 167.597 84.3418C166.604 84.3869 165.664 84.7986 164.958 85.4971C164.251 86.1956 163.829 87.1314 163.773 88.1231C163.717 89.1149 164.031 90.0922 164.655 90.8658C164.805 91.0649 164.981 91.2432 165.179 91.3959C165.916 91.9743 166.826 92.291 167.763 92.2959C168.807 92.2984 169.809 91.8861 170.549 91.1498C171.249 90.4476 171.666 89.513 171.722 88.5234C171.778 87.5338 171.469 86.558 170.853 85.7812C170.703 85.5827 170.527 85.4051 170.329 85.253Z" fill="#111827"/>
<path d="M228.22 88.125H205.312V8.67656C205.312 7.12313 203.852 6.09375 202.298 6.09375H19.6687C18.1153 6.09375 16.875 7.125 16.875 8.67656V214.219H11.7797C10.2262 214.219 8.90625 215.707 8.90625 217.261V231.323C8.90625 232.877 10.2262 233.906 11.7797 233.906H210.187C210.534 233.928 210.882 233.877 211.208 233.756C211.534 233.635 211.83 233.446 212.078 233.202C212.325 232.958 212.519 232.665 212.646 232.341C212.772 232.017 212.829 231.671 212.812 231.323V217.261C212.812 215.707 211.741 214.219 210.187 214.219H205.312V149.531H228.22C228.588 149.542 228.955 149.479 229.299 149.348C229.643 149.216 229.957 149.018 230.224 148.765C230.491 148.511 230.706 148.207 230.855 147.871C231.004 147.534 231.085 147.171 231.094 146.803V90.8531C231.085 90.485 231.004 90.1222 230.855 89.7856C230.706 89.449 230.491 89.1452 230.224 88.8917C229.957 88.6382 229.643 88.4399 229.299 88.3083C228.955 88.1768 228.588 88.1145 228.22 88.125V88.125ZM22.5 11.7187H199.688V88.125H188.517C187.772 88.1035 187.049 88.3789 186.506 88.8904C185.964 89.402 185.647 90.1079 185.625 90.8531V146.803C185.647 147.548 185.964 148.254 186.506 148.766C187.049 149.277 187.772 149.553 188.517 149.531H199.688V214.219H180.469V39.4922C180.459 38.7277 180.155 37.9963 179.62 37.4505C179.085 36.9047 178.359 36.5866 177.595 36.5625H69.87C69.1241 36.5625 68.4087 36.8588 67.8813 37.3863C67.3538 37.9137 67.0575 38.6291 67.0575 39.375C67.0575 40.1209 67.3538 40.8363 67.8813 41.3637C68.4087 41.8912 69.1241 42.1875 69.87 42.1875H174.844V51.0937H148.5C148.135 51.0972 147.774 51.1735 147.439 51.3181C147.103 51.4627 146.8 51.6728 146.547 51.936C146.294 52.1992 146.096 52.5103 145.964 52.851C145.833 53.1917 145.771 53.5553 145.781 53.9203V199.219H132.656V53.9203C132.639 53.1648 132.326 52.4461 131.786 51.9179C131.245 51.3897 130.52 51.0939 129.764 51.0937H57.5156C57.1529 51.0982 56.7947 51.1756 56.4624 51.3212C56.1301 51.4668 55.8304 51.6776 55.5812 51.9413C55.332 52.2049 55.1383 52.516 55.0116 52.8559C54.8849 53.1959 54.8278 53.5579 54.8438 53.9203V199.219H47.3438V42.1875H55.8572C56.6031 42.1875 57.3185 41.8912 57.8459 41.3637C58.3734 40.8363 58.6697 40.1209 58.6697 39.375C58.6697 38.6291 58.3734 37.9137 57.8459 37.3863C57.3185 36.8588 56.6031 36.5625 55.8572 36.5625H44.3766C42.8231 36.5625 41.7188 37.9392 41.7188 39.4922V214.219H22.5V11.7187ZM127.031 68.4375V85.3125H122.344V77.6578C122.352 77.3018 122.287 76.9479 122.152 76.6181C122.018 76.2883 121.818 75.9895 121.563 75.7403C121.309 75.4912 121.006 75.2969 120.673 75.1696C120.341 75.0422 119.985 74.9845 119.63 75H67.65C66.0966 75 64.6875 76.1044 64.6875 77.6578V85.3125H60.4688V68.4375H127.031ZM60.4688 62.8125V56.7187H127.031V62.8125H60.4688ZM116.719 80.625V96.0937H70.3125V80.625H116.719ZM64.6875 90.9375V98.9906C64.6875 100.544 66.0966 101.719 67.65 101.719H119.63C119.989 101.726 120.347 101.661 120.681 101.526C121.014 101.392 121.317 101.191 121.571 100.936C121.825 100.681 122.024 100.377 122.157 100.042C122.29 99.7081 122.353 99.3503 122.344 98.9906V90.9375H127.031V117.187H122.344V109.327C122.37 108.58 122.099 107.853 121.59 107.306C121.081 106.759 120.376 106.435 119.63 106.406H67.65C66.8774 106.425 66.1409 106.737 65.5905 107.28C65.0401 107.822 64.7172 108.554 64.6875 109.327V117.187H60.4688V90.9375H64.6875ZM116.719 112.031V127.969H70.3125V112.031H116.719ZM64.6875 122.812V130.664C64.717 131.437 65.0395 132.17 65.5897 132.714C66.1399 133.258 66.8765 133.573 67.65 133.594H119.63C120.377 133.563 121.082 133.237 121.591 132.688C122.099 132.14 122.37 131.412 122.344 130.664V122.812H127.031V149.062H122.344V141C122.353 140.641 122.289 140.284 122.156 139.95C122.023 139.616 121.824 139.313 121.57 139.059C121.316 138.804 121.013 138.604 120.68 138.471C120.346 138.337 119.989 138.273 119.63 138.281H67.65C66.0966 138.281 64.6875 139.447 64.6875 141V149.062H60.4688V122.812H64.6875ZM116.719 143.906V159.375H70.3125V143.906H116.719ZM64.6875 154.687V162.333C64.6875 163.886 66.0966 165 67.65 165H119.63C119.986 165.014 120.341 164.956 120.674 164.827C121.007 164.699 121.31 164.504 121.564 164.254C121.818 164.004 122.019 163.705 122.153 163.374C122.287 163.044 122.352 162.689 122.344 162.333V154.687H127.031V199.219H60.4688V154.687H64.6875ZM174.844 204.844V214.219H47.3438V204.844H174.844ZM151.406 199.219V154.687H155.625V162.333C155.625 163.886 157.081 165 158.634 165H174.844V199.219H151.406ZM161.25 159.375V143.906H174.844V159.375H161.25ZM158.634 138.281C157.081 138.281 155.625 139.447 155.625 141V149.062H151.406V122.812H155.625V130.664C155.665 131.442 155.997 132.176 156.555 132.719C157.113 133.262 157.856 133.575 158.634 133.594H174.844V138.281H158.634ZM161.25 127.969V112.031H174.844V127.969H161.25ZM158.634 106.406C157.857 106.423 157.114 106.734 156.556 107.275C155.998 107.817 155.665 108.55 155.625 109.327V117.187H151.406V90.9375H155.625V98.9906C155.625 100.544 157.081 101.719 158.634 101.719H174.844V106.406H158.634ZM161.25 96.0937V80.625H174.844V96.0937H161.25ZM158.634 75C157.081 75 155.625 76.1044 155.625 77.6578V85.3125H151.406V67.9687H174.844V75H158.634ZM151.406 62.3437V56.7187H174.844V62.3437H151.406ZM207.188 219.844V228.281H14.5312V219.844H207.188ZM225.469 143.906H191.25V93.75H225.469V143.906Z" fill="#111827"/>
</svg>
