<?xml version="1.0"?>
<svg xmlns="http://www.w3.org/2000/svg" id="Layer_1" data-name="Layer 1" viewBox="0 0 512 512" width="512" height="512"><path d="M198,71h78a6,6,0,0,0,6-6V37a6,6,0,0,0-6-6H198a6,6,0,0,0-6,6V65A6,6,0,0,0,198,71Zm6-28h66V59H204Z"/><path d="M420.25,290h48.54a6.392,6.392,0,0,0,6.21-6.24V248.19a6.347,6.347,0,0,0-6.21-6.19H462v-9.52a17.54,17.54,0,0,0-5.033-12.653,17.044,17.044,0,0,0-12.354-5.277A17.682,17.682,0,0,0,427,232.48V242h-6.75a6.382,6.382,0,0,0-6.25,6.19v35.57A6.427,6.427,0,0,0,420.25,290ZM439,232.48a5.765,5.765,0,0,1,5.725-5.93,5.153,5.153,0,0,1,3.86,1.762A5.572,5.572,0,0,1,450,232.48V242H439ZM426,254h37v24H426Z"/><path d="M67,79.92a6,6,0,0,0-6,6v3.41a6,6,0,0,0,12,0V85.92A6,6,0,0,0,67,79.92Z"/><path d="M67,102.33a6,6,0,0,0-6,6V207.8a6,6,0,0,0,12,0V108.33A6,6,0,0,0,67,102.33Z"/><path d="M158.282,330.1a9,9,0,0,0,5.517,1.928,8.4,8.4,0,0,0,5.934-2.439,8.63,8.63,0,0,0,.654-11.457,6.01,6.01,0,0,0-1.13-1.14,8.555,8.555,0,0,0-12.075,12A6.032,6.032,0,0,0,158.282,330.1Z"/><path d="M182.481,330.107a9.009,9.009,0,0,0,5.513,1.921,8.4,8.4,0,0,0,5.944-2.445,8.631,8.631,0,0,0,.649-11.45,6.01,6.01,0,0,0-1.13-1.14,8.559,8.559,0,0,0-12.094,11.985A6.007,6.007,0,0,0,182.481,330.107Z"/><path d="M206.681,330.107a9.009,9.009,0,0,0,5.513,1.921,8.4,8.4,0,0,0,5.944-2.445,8.631,8.631,0,0,0,.649-11.45,6.01,6.01,0,0,0-1.13-1.14,8.559,8.559,0,0,0-12.094,11.985A6.007,6.007,0,0,0,206.681,330.107Z"/><path d="M158.282,262.531a9,9,0,0,0,5.517,1.928,8.4,8.4,0,0,0,5.94-2.444,8.619,8.619,0,0,0,.641-11.451,6.022,6.022,0,0,0-1.111-1.122,8.551,8.551,0,0,0-12.081,11.985A6.019,6.019,0,0,0,158.282,262.531Z"/><path d="M182.481,262.538A9.011,9.011,0,0,0,188,264.459a8.406,8.406,0,0,0,5.95-2.451,8.62,8.62,0,0,0,.635-11.444,6.022,6.022,0,0,0-1.111-1.122,8.555,8.555,0,0,0-12.1,11.974A6.022,6.022,0,0,0,182.481,262.538Z"/><path d="M206.681,262.538a9.011,9.011,0,0,0,5.514,1.921,8.406,8.406,0,0,0,5.95-2.451,8.62,8.62,0,0,0,.635-11.444,6.022,6.022,0,0,0-1.111-1.122,8.555,8.555,0,0,0-12.1,11.974A6.022,6.022,0,0,0,206.681,262.538Z"/><path d="M158.282,194.971A9,9,0,0,0,163.8,196.9a8.4,8.4,0,0,0,5.935-2.439A8.632,8.632,0,0,0,170.387,183a6.007,6.007,0,0,0-1.118-1.129,8.554,8.554,0,0,0-12.087,11.985A5.976,5.976,0,0,0,158.282,194.971Z"/><path d="M182.481,194.978a9.014,9.014,0,0,0,5.513,1.92,8.4,8.4,0,0,0,5.944-2.445A8.632,8.632,0,0,0,194.587,183a6.007,6.007,0,0,0-1.118-1.129,8.558,8.558,0,0,0-12.106,11.974A6.017,6.017,0,0,0,182.481,194.978Z"/><path d="M206.681,194.978a9.012,9.012,0,0,0,5.513,1.92,8.4,8.4,0,0,0,5.944-2.445A8.632,8.632,0,0,0,218.787,183a6.007,6.007,0,0,0-1.118-1.129,8.558,8.558,0,0,0-12.106,11.974A6.017,6.017,0,0,0,206.681,194.978Z"/><path d="M363.357,316.994a8.559,8.559,0,0,0-12.094,11.984,6.007,6.007,0,0,0,1.118,1.129,9.009,9.009,0,0,0,5.513,1.921,8.4,8.4,0,0,0,5.944-2.445,8.631,8.631,0,0,0,.649-11.45A5.976,5.976,0,0,0,363.357,316.994Z"/><path d="M363.369,249.442a8.555,8.555,0,0,0-12.1,11.974,6.022,6.022,0,0,0,1.111,1.122,9.011,9.011,0,0,0,5.514,1.921,8.406,8.406,0,0,0,5.95-2.451,8.62,8.62,0,0,0,.635-11.444A6.022,6.022,0,0,0,363.369,249.442Z"/><path d="M363.369,181.873a8.558,8.558,0,0,0-12.106,11.974,6.017,6.017,0,0,0,1.118,1.131,9.012,9.012,0,0,0,5.513,1.92,8.4,8.4,0,0,0,5.944-2.445A8.632,8.632,0,0,0,364.487,183,6.007,6.007,0,0,0,363.369,181.873Z"/><path d="M486.87,188H438V18.51c0-3.314-3.116-5.51-6.43-5.51H41.96C38.646,13,36,15.2,36,18.51V457H25.13c-3.314,0-6.13,3.176-6.13,6.49v30c0,3.314,2.816,5.51,6.13,5.51H448.4a5.269,5.269,0,0,0,5.6-5.51v-30c0-3.314-2.286-6.49-5.6-6.49H438V319h48.87a5.961,5.961,0,0,0,6.13-5.82V193.82A5.961,5.961,0,0,0,486.87,188ZM48,25H426V188H402.17a6,6,0,0,0-6.17,5.82V313.18a6,6,0,0,0,6.17,5.82H426V457H385V84.25A6.33,6.33,0,0,0,378.87,78H149.056a6,6,0,0,0,0,12H373v19H316.8a5.858,5.858,0,0,0-5.8,6.03V425H283V115.03a6.173,6.173,0,0,0-6.17-6.03H122.7a5.777,5.777,0,0,0-5.7,6.03V425H101V90h18.162a6,6,0,0,0,0-12H94.67C91.356,78,89,80.937,89,84.25V457H48ZM271,146v36H261V165.67a5.55,5.55,0,0,0-5.79-5.67H144.32c-3.314,0-6.32,2.356-6.32,5.67V182h-9V146ZM129,134V121H271v13Zm120,38v33H150V172ZM138,194v17.18c0,3.314,3.006,5.82,6.32,5.82H255.21a5.672,5.672,0,0,0,5.79-5.82V194h10v56H261V233.23a6.026,6.026,0,0,0-5.79-6.23H144.32a6.481,6.481,0,0,0-6.32,6.23V250h-9V194Zm111,45v34H150V239ZM138,262v16.75a6.5,6.5,0,0,0,6.32,6.25H255.21a6.044,6.044,0,0,0,5.79-6.25V262h10v56H261V300.8a5.656,5.656,0,0,0-5.79-5.8H144.32c-3.314,0-6.32,2.486-6.32,5.8V318h-9V262Zm111,45v33H150V307ZM138,330v16.31c0,3.314,3.006,5.69,6.32,5.69H255.21a5.566,5.566,0,0,0,5.79-5.69V330h10v95H129V330ZM373,437v20H101V437Zm-50-12V330h9v16.31c0,3.314,3.106,5.69,6.42,5.69H373v73Zm21-85V307h29v33Zm-5.58-45c-3.314,0-6.42,2.486-6.42,5.8V318h-9V262h9v16.75a6.59,6.59,0,0,0,6.42,6.25H373v10ZM344,273V239h29v34Zm-5.58-46a6.572,6.572,0,0,0-6.42,6.23V250h-9V194h9v17.18c0,3.314,3.106,5.82,6.42,5.82H373v10ZM344,205V172h29v33Zm-5.58-45c-3.314,0-6.42,2.356-6.42,5.67V182h-9V145h50v15ZM323,133V121h50v12ZM442,469v18H31V469Zm39-162H408V200h73Z"/></svg>
