<?xml version="1.0" encoding="utf-8"?>
<!-- Generator: Adobe Illustrator 21.0.2, SVG Export Plug-In . SVG Version: 6.00 Build 0)  -->
<!DOCTYPE svg PUBLIC "-//W3C//DTD SVG 1.1//EN" "http://www.w3.org/Graphics/SVG/1.1/DTD/svg11.dtd" [
	<!ENTITY ns_extend "http://ns.adobe.com/Extensibility/1.0/">
	<!ENTITY ns_ai "http://ns.adobe.com/AdobeIllustrator/10.0/">
	<!ENTITY ns_graphs "http://ns.adobe.com/Graphs/1.0/">
	<!ENTITY ns_vars "http://ns.adobe.com/Variables/1.0/">
	<!ENTITY ns_imrep "http://ns.adobe.com/ImageReplacement/1.0/">
	<!ENTITY ns_sfw "http://ns.adobe.com/SaveForWeb/1.0/">
	<!ENTITY ns_custom "http://ns.adobe.com/GenericCustomNamespace/1.0/">
	<!ENTITY ns_adobe_xpath "http://ns.adobe.com/XPath/1.0/">
]>
<svg version="1.1" id="Layer_1" xmlns:x="&ns_extend;" xmlns:i="&ns_ai;" xmlns:graph="&ns_graphs;"
	 xmlns="http://www.w3.org/2000/svg" xmlns:xlink="http://www.w3.org/1999/xlink" x="0px" y="0px" viewBox="0 0 750 750"
	 style="enable-background:new 0 0 750 750;" xml:space="preserve">
			<path d="M352.2,619.3c-4.7,23.7-18.5,39.5-41.1,47.9c-7.4,2.8-15.2,4.2-22.9,5.7c-8,1.5-16,2.3-24.1,2.8
				c-13.3,0.8-26.5,0.2-39.4-3.5c-4.6-1.3-9-3.1-13.2-5.5c-8.1-4.6-14.1-11-17.5-19.9c-3.8-10-6.9-20.3-9.7-30.6
				c-3.6-13.4-6.6-26.8-9.4-40.4c-2.7-13.1-5.2-26.2-7.4-39.4c-2.1-12.6-4.4-25.2-6.2-37.8c-2.5-17-6.5-33.6-10-50.3
				c-1.4-6.8-2.9-13.6-4-20.5c1.1,3.4,2.2,6.7,3.3,10.1c9.1,28,21.8,54.4,36.7,79.7c4.5,7.7,16.7,7.5,21-0.2
				c0.5-0.8,0.6-1.8,0.8-2.7c1.4-9.7-0.5-18.8-5.2-27.2c-7.5-13.7-15.1-27.3-23.4-40.5c-4.8-7.7-9.6-15.3-14.6-22.8
				c-5.1-7.7-8.4-16.2-10.4-25.1c-5-21.4-2.6-42.4,4.3-63c6.2-18.3,15.6-35,26.8-50.7c13.7-19.2,29.7-36.4,47-52.4
				c5.5-5.1,15-5.9,21.2,1c4.3,4.8,8.5,9.6,12.3,14.7c17.3,22.8,30.1,47.8,38,75.3c5.6,19.5,8.1,39.4,7.5,59.7
				c-0.8,25.6-6.7,50-16.9,73.4c-4.3,9.8-9.2,19.4-14.7,28.6c-1.8,3-3.1,6.2-3,9.8c0.1,3.7,1.6,6.5,4.5,8.6
				c3.6,2.6,7.8,3.5,12.1,4.2c1.2,0.2,2.2-0.5,3.2-1c4.1-2.4,7.2-5.7,9.8-9.5c1.3-2,2.4-4,3.4-6.2c7.2-15.9,13.7-32,18.3-48.8
				c0.1-0.3,0.3-0.6,0.5-1c0.1,0,0.3,0,0.4,0.1c0.2,1.7,0.3,3.4,0.5,5c1.8,20.2,4.1,40.4,6.8,60.5c1.7,13,3.6,25.9,5.6,38.8
				c1.9,12.3,4.1,24.5,6.2,36.7c1.2,7,2.7,14,3.7,21.1C353.9,609.3,353.1,614.4,352.2,619.3z M137.4,351.8
				c0.8-22,5.1-43.2,13.4-63.6c7.4-18.4,17.7-35,30.6-50.1c9.5-11.1,20.1-21,32.2-29.3c1.6-1.1,3.2-2.3,4.6-3.7
				c5.6-5.5,11.9-9.4,20-9.9c1.2-0.1,1.6-0.6,1.6-1.7c0-2.2,0.4-4.3,1.4-6.3c2.5-5.4,6.6-9.1,11.8-11.7c2.1-1.1,4.4-0.6,6.6,0.1
				c1.6,0.5,1.9,1.6,1.3,3.2c-0.5,1.2-1.3,2.1-2.2,2.9c-1.5,1.4-2.9,2.9-4.2,4.6c-2,2.6-3.6,5.5-4.3,8.8c-0.6,2.9-0.3,3.5,2.1,5.1
				c11.8,7.8,22.8,16.5,33,26.4c20.9,20.5,36.3,44.4,45.6,72.2c1.6,4.7,2.9,9.5,4.3,14.4c1-0.8,0.9-1.9,1.1-2.7
				c7.1-32.6,9.3-65.6,7-98.9c-1.4-19.9-4.6-39.6-9.4-59c-3.9-15.7-8.9-31-15.2-46c-4.4-10.5-11.8-18.2-21.5-23.8
				c-11.4-6.6-24-8.5-36.9-8.1c-13.4,0.4-26.4,3.3-39.1,7.6c-15.2,5.2-29.4,12.3-42.3,22c-20,15-35.8,33.7-48.3,55.3
				c-7,12.1-12.5,24.8-15.8,38.5c-4.1,17.2-5.3,34.7-4.6,52.3c0.5,13.2,2,26.3,4.9,39.1c1.6,7,3.7,14,5.4,21
				c2.8,11.3,5.5,22.7,8.1,34c2.5,10.8,4.9,21.6,7.4,32.4c1.1,4.6,1.9,9.4,3.5,13.9c-0.1-1.3-0.2-2.6-0.4-3.9
				C137.6,375.3,137,363.6,137.4,351.8z"/>
	</svg>
