<svg width="237" height="31" viewBox="0 0 237 31" fill="none" xmlns="http://www.w3.org/2000/svg">
<path d="M4.84375 14.1406L14.0625 17.6406V21.4375L0.984375 15.6094V12.5938L14.0625 6.78125V10.5781L4.84375 14.1406ZM36.2625 15.7188C36.2625 18.3438 35.674 20.4323 34.4969 21.9844C33.3302 23.5365 31.7208 24.3125 29.6688 24.3125C27.6896 24.3125 26.1479 23.599 25.0438 22.1719L24.8563 24H21.4188V0H25.2156V8.71875C26.3094 7.42708 27.7833 6.78125 29.6375 6.78125C31.7 6.78125 33.3198 7.54688 34.4969 9.07812C35.674 10.6094 36.2625 12.75 36.2625 15.5V15.7188ZM32.4656 15.3906C32.4656 13.5573 32.1427 12.1823 31.4969 11.2656C30.851 10.349 29.9135 9.89062 28.6844 9.89062C27.0385 9.89062 25.8823 10.6094 25.2156 12.0469V19.0156C25.8927 20.4844 27.0594 21.2188 28.7156 21.2188C29.9031 21.2188 30.8198 20.776 31.4656 19.8906C32.1115 19.0052 32.4448 17.6667 32.4656 15.875V15.3906ZM41.9469 15.3906C41.9469 13.7344 42.275 12.2448 42.9313 10.9219C43.5875 9.58854 44.5094 8.56771 45.6969 7.85938C46.8844 7.14062 48.249 6.78125 49.7906 6.78125C52.0719 6.78125 53.9208 7.51562 55.3375 8.98438C56.7646 10.4531 57.5354 12.401 57.65 14.8281L57.6656 15.7188C57.6656 17.3854 57.3427 18.875 56.6969 20.1875C56.0615 21.5 55.1448 22.5156 53.9469 23.2344C52.7594 23.9531 51.3844 24.3125 49.8219 24.3125C47.4365 24.3125 45.525 23.5208 44.0875 21.9375C42.6604 20.3438 41.9469 18.224 41.9469 15.5781V15.3906ZM45.7438 15.7188C45.7438 17.4583 46.1031 18.8229 46.8219 19.8125C47.5406 20.7917 48.5406 21.2812 49.8219 21.2812C51.1031 21.2812 52.0979 20.7812 52.8063 19.7812C53.525 18.7812 53.8844 17.3177 53.8844 15.3906C53.8844 13.6823 53.5146 12.3281 52.775 11.3281C52.0458 10.3281 51.051 9.82812 49.7906 9.82812C48.551 9.82812 47.5667 10.3229 46.8375 11.3125C46.1083 12.2917 45.7438 13.7604 45.7438 15.7188ZM63.3656 15.4219C63.3656 12.8177 63.9698 10.7292 65.1781 9.15625C66.3865 7.57292 68.0062 6.78125 70.0375 6.78125C71.8292 6.78125 73.2771 7.40625 74.3812 8.65625V0H78.1781V24H74.7406L74.5531 22.25C73.4177 23.625 71.9021 24.3125 70.0062 24.3125C68.0271 24.3125 66.4229 23.5156 65.1937 21.9219C63.975 20.3281 63.3656 18.1615 63.3656 15.4219ZM67.1625 15.75C67.1625 17.4688 67.4906 18.8125 68.1469 19.7812C68.8135 20.7396 69.7562 21.2188 70.975 21.2188C72.5271 21.2188 73.6625 20.526 74.3812 19.1406V11.9219C73.6833 10.5677 72.5583 9.89062 71.0062 9.89062C69.7771 9.89062 68.8292 10.3802 68.1625 11.3594C67.4958 12.3281 67.1625 13.7917 67.1625 15.75ZM91.2531 18.5625L94.6906 7.09375H98.7375L92.0188 26.5625C90.9875 29.4062 89.2375 30.8281 86.7688 30.8281C86.2167 30.8281 85.6073 30.7344 84.9406 30.5469V27.6094L85.6594 27.6562C86.6177 27.6562 87.3365 27.4792 87.8156 27.125C88.3052 26.7812 88.6906 26.1979 88.9719 25.375L89.5188 23.9219L83.5813 7.09375H87.675L91.2531 18.5625Z" fill="#FA0041"/>
<path d="M122.247 21.2812C123.195 21.2812 123.981 21.0052 124.606 20.4531C125.231 19.901 125.565 19.2188 125.606 18.4062H129.184C129.143 19.4583 128.815 20.4427 128.2 21.3594C127.585 22.2656 126.752 22.9844 125.7 23.5156C124.648 24.0469 123.512 24.3125 122.294 24.3125C119.929 24.3125 118.054 23.5469 116.669 22.0156C115.283 20.4844 114.591 18.3698 114.591 15.6719V15.2812C114.591 12.7083 115.278 10.651 116.653 9.10938C118.028 7.55729 119.903 6.78125 122.278 6.78125C124.289 6.78125 125.924 7.36979 127.184 8.54688C128.455 9.71354 129.122 11.25 129.184 13.1562H125.606C125.565 12.1875 125.231 11.3906 124.606 10.7656C123.992 10.1406 123.205 9.82812 122.247 9.82812C121.018 9.82812 120.07 10.276 119.403 11.1719C118.736 12.0573 118.398 13.4062 118.387 15.2188V15.8281C118.387 17.6615 118.716 19.0312 119.372 19.9375C120.039 20.8333 120.997 21.2812 122.247 21.2812ZM139.291 24H135.494V0H139.291V24ZM156.741 24C156.574 23.6771 156.428 23.151 156.303 22.4219C155.095 23.6823 153.616 24.3125 151.866 24.3125C150.168 24.3125 148.782 23.8281 147.709 22.8594C146.636 21.8906 146.1 20.6927 146.1 19.2656C146.1 17.4635 146.767 16.0833 148.1 15.125C149.444 14.1562 151.36 13.6719 153.85 13.6719H156.178V12.5625C156.178 11.6875 155.933 10.9896 155.444 10.4688C154.954 9.9375 154.209 9.67188 153.209 9.67188C152.345 9.67188 151.636 9.89062 151.084 10.3281C150.532 10.7552 150.256 11.3021 150.256 11.9688H146.459C146.459 11.0417 146.767 10.1771 147.381 9.375C147.996 8.5625 148.829 7.92708 149.881 7.46875C150.944 7.01042 152.126 6.78125 153.428 6.78125C155.407 6.78125 156.985 7.28125 158.163 8.28125C159.34 9.27083 159.944 10.6667 159.975 12.4688V20.0938C159.975 21.6146 160.189 22.8281 160.616 23.7344V24H156.741ZM152.569 21.2656C153.319 21.2656 154.022 21.0833 154.678 20.7188C155.345 20.3542 155.845 19.8646 156.178 19.25V16.0625H154.131C152.725 16.0625 151.668 16.3073 150.959 16.7969C150.251 17.2865 149.897 17.9792 149.897 18.875C149.897 19.6042 150.136 20.1875 150.616 20.625C151.105 21.0521 151.756 21.2656 152.569 21.2656ZM176.628 19.4062C176.628 18.7292 176.347 18.2135 175.784 17.8594C175.232 17.5052 174.31 17.1927 173.019 16.9219C171.727 16.651 170.649 16.3073 169.784 15.8906C167.889 14.974 166.941 13.6458 166.941 11.9062C166.941 10.4479 167.555 9.22917 168.784 8.25C170.014 7.27083 171.576 6.78125 173.472 6.78125C175.493 6.78125 177.123 7.28125 178.363 8.28125C179.613 9.28125 180.238 10.5781 180.238 12.1719H176.441C176.441 11.4427 176.17 10.8385 175.628 10.3594C175.086 9.86979 174.368 9.625 173.472 9.625C172.639 9.625 171.956 9.81771 171.425 10.2031C170.904 10.5885 170.644 11.1042 170.644 11.75C170.644 12.3333 170.889 12.7865 171.378 13.1094C171.868 13.4323 172.857 13.7604 174.347 14.0938C175.836 14.4167 177.003 14.8073 177.847 15.2656C178.701 15.7135 179.331 16.2552 179.738 16.8906C180.154 17.526 180.363 18.2969 180.363 19.2031C180.363 20.724 179.732 21.9583 178.472 22.9062C177.211 23.8438 175.56 24.3125 173.519 24.3125C172.133 24.3125 170.899 24.0625 169.816 23.5625C168.732 23.0625 167.889 22.375 167.284 21.5C166.68 20.625 166.378 19.6823 166.378 18.6719H170.066C170.118 19.5677 170.456 20.2604 171.081 20.75C171.706 21.2292 172.534 21.4688 173.566 21.4688C174.566 21.4688 175.326 21.2812 175.847 20.9062C176.368 20.5208 176.628 20.0208 176.628 19.4062ZM196.359 19.4062C196.359 18.7292 196.078 18.2135 195.516 17.8594C194.964 17.5052 194.042 17.1927 192.75 16.9219C191.458 16.651 190.38 16.3073 189.516 15.8906C187.62 14.974 186.672 13.6458 186.672 11.9062C186.672 10.4479 187.286 9.22917 188.516 8.25C189.745 7.27083 191.307 6.78125 193.203 6.78125C195.224 6.78125 196.854 7.28125 198.094 8.28125C199.344 9.28125 199.969 10.5781 199.969 12.1719H196.172C196.172 11.4427 195.901 10.8385 195.359 10.3594C194.818 9.86979 194.099 9.625 193.203 9.625C192.37 9.625 191.688 9.81771 191.156 10.2031C190.635 10.5885 190.375 11.1042 190.375 11.75C190.375 12.3333 190.62 12.7865 191.109 13.1094C191.599 13.4323 192.589 13.7604 194.078 14.0938C195.568 14.4167 196.734 14.8073 197.578 15.2656C198.432 15.7135 199.062 16.2552 199.469 16.8906C199.885 17.526 200.094 18.2969 200.094 19.2031C200.094 20.724 199.464 21.9583 198.203 22.9062C196.943 23.8438 195.292 24.3125 193.25 24.3125C191.865 24.3125 190.63 24.0625 189.547 23.5625C188.464 23.0625 187.62 22.375 187.016 21.5C186.411 20.625 186.109 19.6823 186.109 18.6719H189.797C189.849 19.5677 190.188 20.2604 190.812 20.75C191.438 21.2292 192.266 21.4688 193.297 21.4688C194.297 21.4688 195.057 21.2812 195.578 20.9062C196.099 20.5208 196.359 20.0208 196.359 19.4062ZM220.403 11.8125H206.934V8.65625H220.403V11.8125ZM220.403 18.4375H206.934V15.2969H220.403V18.4375ZM228.712 8L226.775 6.79688C227.712 5.43229 228.197 3.98958 228.228 2.46875V0H231.556V2.15625C231.556 3.22917 231.28 4.3125 230.728 5.40625C230.186 6.48958 229.515 7.35417 228.712 8ZM233.931 8L231.994 6.79688C232.931 5.43229 233.416 3.98958 233.447 2.46875V0H236.775V2.15625C236.775 3.22917 236.499 4.3125 235.947 5.40625C235.405 6.48958 234.733 7.35417 233.931 8Z" fill="#111827"/>
</svg>
