<?xml version="1.0" encoding="iso-8859-1"?>
<!-- Generator: Adobe Illustrator 18.0.0, SVG Export Plug-In . SVG Version: 6.00 Build 0)  -->
<!DOCTYPE svg PUBLIC "-//W3C//DTD SVG 1.1//EN" "http://www.w3.org/Graphics/SVG/1.1/DTD/svg11.dtd">
<svg version="1.1" id="Capa_1" xmlns="http://www.w3.org/2000/svg" xmlns:xlink="http://www.w3.org/1999/xlink" x="0px" y="0px"
	 viewBox="0 0 60 60" style="enable-background:new 0 0 60 60;" xml:space="preserve">
<g>
	<path d="M46,17c0-2.757-2.243-5-5-5H23v-1.142c1.72-0.447,3-1.999,3-3.858s-1.28-3.411-3-3.858V1c0-0.553-0.448-1-1-1s-1,0.447-1,1
		v2.142C19.28,3.589,18,5.141,18,7s1.28,3.411,3,3.858V12H5c-2.757,0-5,2.243-5,5c0,2.439,1.755,4.476,4.069,4.913
		C3.4,22.764,3,23.836,3,25c0,2.439,1.755,4.476,4.069,4.913C6.4,30.764,6,31.836,6,33c0,2.439,1.755,4.476,4.069,4.913
		C9.4,38.764,9,39.836,9,41c0,2.757,2.243,5,5,5h0.002C13.374,46.836,13,47.875,13,49c0,1.13,0.391,2.162,1.026,3H5v1
		c0,2.757,2.243,5,5,5h11v1c0,0.553,0.448,1,1,1s1-0.447,1-1v-1h11c2.757,0,5-2.243,5-5v-1h-8.026C31.609,51.162,32,50.13,32,49
		c0-1.125-0.374-2.164-1.002-3H31c2.757,0,5-2.243,5-5c0-1.164-0.4-2.236-1.069-3.087C37.245,37.476,39,35.439,39,33
		c0-1.164-0.4-2.236-1.069-3.087C40.245,29.476,42,27.439,42,25c0-1.125-0.374-2.164-1.002-3H41C43.757,22,46,19.757,46,17z"/>
	<path d="M59,46h-1V7c0-2.757-2.243-5-5-5s-5,2.243-5,5v39h-1c-0.552,0-1,0.447-1,1s0.448,1,1,1h1h2v7.051
		c-1.14,0.232-2,1.242-2,2.449c0,1.379,1.122,2.5,2.5,2.5h5c1.378,0,2.5-1.121,2.5-2.5c0-1.208-0.86-2.217-2-2.449V48h2h1
		c0.552,0,1-0.447,1-1S59.552,46,59,46z"/>
</g>
<g>
</g>
<g>
</g>
<g>
</g>
<g>
</g>
<g>
</g>
<g>
</g>
<g>
</g>
<g>
</g>
<g>
</g>
<g>
</g>
<g>
</g>
<g>
</g>
<g>
</g>
<g>
</g>
<g>
</g>
</svg>
