<svg width="240" height="240" viewBox="0 0 240 240" fill="none" xmlns="http://www.w3.org/2000/svg">
<path d="M228.387 0H58.0645C51.6619 0 46.4516 5.21032 46.4516 11.6129V69.6774H19.3548C8.68258 69.6774 0 78.36 0 89.0323V181.935C0 192.608 8.68258 201.29 19.3548 201.29H56.5626L51.4026 216.774H38.7097C32.3071 216.774 27.0968 221.985 27.0968 228.387V240H143.226V228.387C143.226 221.985 138.015 216.774 131.613 216.774H118.92L113.76 201.29H150.968C161.64 201.29 170.323 192.608 170.323 181.935V178.065H228.387C234.79 178.065 240 172.854 240 166.452V11.6129C240 5.21032 234.79 0 228.387 0ZM58.0645 7.74194H228.387C230.52 7.74194 232.258 9.48 232.258 11.6129V30.9677H54.1935V11.6129C54.1935 9.48 55.9316 7.74194 58.0645 7.74194ZM19.3548 77.4194H150.968C157.37 77.4194 162.581 82.6297 162.581 89.0323V162.581H7.74194V89.0323C7.74194 82.6297 12.9523 77.4194 19.3548 77.4194ZM170.323 100.645H216.774V154.839H170.323V100.645ZM135.484 228.387V232.258H34.8387V228.387C34.8387 226.254 36.5768 224.516 38.7097 224.516H131.613C133.746 224.516 135.484 226.254 135.484 228.387ZM110.756 216.774H59.5665L64.7265 201.29H105.596L110.756 216.774ZM150.968 193.548H19.3548C12.9523 193.548 7.74194 188.338 7.74194 181.935V170.323H162.581V181.935C162.581 188.338 157.37 193.548 150.968 193.548ZM228.387 170.323H170.323V162.581H224.516V92.9032H170.323V89.0323C170.323 78.36 161.64 69.6774 150.968 69.6774H54.1935V38.7097H232.258V166.452C232.258 168.585 230.52 170.323 228.387 170.323Z" fill="#111827"/>
<path d="M65.8062 178.065H73.5481V185.806H65.8062V178.065Z" fill="#111827"/>
<path d="M81.2905 178.065H89.0325V185.806H81.2905V178.065Z" fill="#111827"/>
<path d="M96.7742 178.065H104.516V185.806H96.7742V178.065Z" fill="#111827"/>
<path d="M77.4192 15.4839H85.1611V23.2258H77.4192V15.4839Z" fill="#111827"/>
<path d="M92.9033 15.4839H100.645V23.2258H92.9033V15.4839Z" fill="#111827"/>
<path d="M61.9355 15.4839H69.6775V23.2258H61.9355V15.4839Z" fill="#111827"/>
<path d="M61.9355 46.4516H69.6775V54.1935H61.9355V46.4516Z" fill="#111827"/>
<path d="M77.4192 46.4516H224.516V54.1935H77.4192V46.4516Z" fill="#111827"/>
<path d="M178.064 61.9355H224.516V69.6774H178.064V61.9355Z" fill="#111827"/>
<path d="M178.064 77.4193H224.516V85.1613H178.064V77.4193Z" fill="#111827"/>
<path d="M27.0968 154.839H104.516C110.919 154.839 116.129 149.628 116.129 143.226V96.7742C116.129 90.3716 110.919 85.1613 104.516 85.1613H27.0968C20.6942 85.1613 15.4839 90.3716 15.4839 96.7742V143.226C15.4839 149.628 20.6942 154.839 27.0968 154.839ZM23.2258 96.7742C23.2258 94.6413 24.9639 92.9032 27.0968 92.9032H104.516C106.649 92.9032 108.387 94.6413 108.387 96.7742V143.226C108.387 145.359 106.649 147.097 104.516 147.097H27.0968C24.9639 147.097 23.2258 145.359 23.2258 143.226V96.7742Z" fill="#111827"/>
<path d="M54.415 141.939L69.8876 95.4718L77.2347 97.9183L61.7621 144.385L54.415 141.939Z" fill="#111827"/>
<path d="M84.0273 138.221L102.248 120L84.0273 101.779L78.5537 107.253L91.3008 120L78.5537 132.747L84.0273 138.221Z" fill="#111827"/>
<path d="M53.0594 132.747L40.3123 120L53.0594 107.253L47.5859 101.779L29.3652 120L47.5859 138.221L53.0594 132.747Z" fill="#111827"/>
<path d="M123.871 85.1613H154.839V92.9032H123.871V85.1613Z" fill="#111827"/>
<path d="M123.871 100.645H154.839V108.387H123.871V100.645Z" fill="#111827"/>
<path d="M123.871 116.129H154.839V123.871H123.871V116.129Z" fill="#111827"/>
<path d="M123.871 131.613H154.839V139.355H123.871V131.613Z" fill="#111827"/>
<path d="M131.613 147.097H139.355V154.839H131.613V147.097Z" fill="#111827"/>
<path d="M147.097 147.097H154.839V154.839H147.097V147.097Z" fill="#111827"/>
</svg>
